<svg width="447" height="296" viewBox="0 0 447 296" fill="none" xmlns="http://www.w3.org/2000/svg">
<mask id="path-1-inside-1_11_2" fill="white">
<path fill-rule="evenodd" clip-rule="evenodd" d="M152.635 243.725C142.909 253.179 129.634 259 115 259C98.0148 259 82.8612 251.158 72.9622 238.897C68.0423 240.268 62.8567 241 57.5 241C25.7436 241 0 215.256 0 183.5C0 151.744 25.7436 126 57.5 126C57.8022 126 58.1039 126.002 58.4051 126.007C57.4806 120.308 57 114.46 57 108.5C57 48.5771 105.577 0 165.5 0C208.573 0 245.784 25.0988 263.305 61.469C272.516 57.313 282.738 55 293.5 55C325.266 55 352.326 75.1521 362.592 103.369C371.252 97.4571 381.722 94 393 94C422.823 94 447 118.177 447 148C447 177.823 422.823 202 393 202C383.93 202 375.382 199.764 367.877 195.813C363.168 217.088 344.192 233 321.5 233C315.672 233 310.089 231.95 304.931 230.03C298.719 267.46 266.192 296 227 296C192.749 296 163.59 274.204 152.635 243.725Z"/>
</mask>
<path fill-rule="evenodd" clip-rule="evenodd" d="M152.635 243.725C142.909 253.179 129.634 259 115 259C98.0148 259 82.8612 251.158 72.9622 238.897C68.0423 240.268 62.8567 241 57.5 241C25.7436 241 0 215.256 0 183.5C0 151.744 25.7436 126 57.5 126C57.8022 126 58.1039 126.002 58.4051 126.007C57.4806 120.308 57 114.46 57 108.5C57 48.5771 105.577 0 165.5 0C208.573 0 245.784 25.0988 263.305 61.469C272.516 57.313 282.738 55 293.5 55C325.266 55 352.326 75.1521 362.592 103.369C371.252 97.4571 381.722 94 393 94C422.823 94 447 118.177 447 148C447 177.823 422.823 202 393 202C383.93 202 375.382 199.764 367.877 195.813C363.168 217.088 344.192 233 321.5 233C315.672 233 310.089 231.95 304.931 230.03C298.719 267.46 266.192 296 227 296C192.749 296 163.59 274.204 152.635 243.725Z" fill="white"/>
<path d="M152.635 243.725L156.399 242.372L154.299 236.529L149.847 240.857L152.635 243.725ZM72.9622 238.897L76.0744 236.384L74.4224 234.338L71.8889 235.044L72.9622 238.897ZM58.4051 126.007L58.3434 130.007L63.1181 130.08L62.3535 125.366L58.4051 126.007ZM263.305 61.469L259.701 63.205L261.394 66.7193L264.95 65.1151L263.305 61.469ZM362.592 103.369L358.833 104.737L360.593 109.577L364.847 106.673L362.592 103.369ZM367.877 195.813L369.741 192.273L365.105 189.832L363.972 194.948L367.877 195.813ZM304.931 230.03L306.326 226.281L301.779 224.589L300.984 229.375L304.931 230.03ZM149.847 240.857C140.838 249.614 128.552 255 115 255V263C130.717 263 144.981 256.743 155.423 246.593L149.847 240.857ZM115 255C99.2747 255 85.2467 247.745 76.0744 236.384L69.8499 241.41C80.4756 254.571 96.7549 263 115 263V255ZM71.8889 235.044C67.3152 236.318 62.4905 237 57.5 237V245C63.2229 245 68.7695 244.217 74.0354 242.751L71.8889 235.044ZM57.5 237C27.9528 237 4 213.047 4 183.5H-4C-4 217.466 23.5345 245 57.5 245V237ZM4 183.5C4 153.953 27.9528 130 57.5 130V122C23.5345 122 -4 149.534 -4 183.5H4ZM57.5 130C57.7816 130 58.0628 130.002 58.3434 130.007L58.4668 122.007C58.1451 122.002 57.8228 122 57.5 122V130ZM62.3535 125.366C61.4632 119.878 61 114.245 61 108.5H53C53 114.675 53.498 120.738 54.4567 126.647L62.3535 125.366ZM61 108.5C61 50.7862 107.786 4 165.5 4V-4C103.368 -4 53 46.368 53 108.5H61ZM165.5 4C206.979 4 242.821 28.1662 259.701 63.205L266.908 59.733C248.746 22.0313 210.167 -4 165.5 -4V4ZM264.95 65.1151C273.654 61.1877 283.316 59 293.5 59V51C282.16 51 271.378 53.4382 261.66 57.8229L264.95 65.1151ZM293.5 59C323.531 59 349.123 78.0494 358.833 104.737L366.351 102.002C355.528 72.2547 327.001 51 293.5 51V59ZM364.847 106.673C372.864 101.2 382.552 98 393 98V90C380.893 90 369.641 93.7142 360.336 100.066L364.847 106.673ZM393 98C420.614 98 443 120.386 443 148H451C451 115.967 425.033 90 393 90V98ZM443 148C443 175.614 420.614 198 393 198V206C425.033 206 451 180.033 451 148H443ZM393 198C384.595 198 376.685 195.929 369.741 192.273L366.014 199.352C374.079 203.598 383.265 206 393 206V198ZM363.972 194.948C359.659 214.431 342.276 229 321.5 229V237C346.108 237 366.676 219.745 371.783 196.677L363.972 194.948ZM321.5 229C316.156 229 311.045 228.038 306.326 226.281L303.535 233.779C309.134 235.863 315.189 237 321.5 237V229ZM300.984 229.375C295.088 264.907 264.204 292 227 292V300C268.18 300 302.35 270.014 308.877 230.685L300.984 229.375ZM227 292C194.49 292 166.801 271.313 156.399 242.372L148.871 245.078C160.378 277.094 191.009 300 227 300V292Z" fill="black" mask="url(#path-1-inside-1_11_2)"/>
</svg>
