<svg width="405" height="212" viewBox="0 0 405 212" fill="none" xmlns="http://www.w3.org/2000/svg">
<mask id="path-1-inside-1_17_70" fill="white">
<path fill-rule="evenodd" clip-rule="evenodd" d="M62.1661 157.273C58.7808 157.971 55.2747 158.337 51.6829 158.337C23.1392 158.337 0 135.198 0 106.654C0 78.1105 23.1392 54.9713 51.6829 54.9713C64.124 54.9713 75.5384 59.3672 84.4576 66.6905C86.0286 29.9642 116.3 0.67157 153.413 0.67157C186.674 0.67157 214.44 24.1989 220.976 55.5192C233.911 41.8848 252.203 33.3823 272.48 33.3823C300.659 33.3823 325.003 49.8023 336.465 73.5962C342.492 70.8772 349.179 69.364 356.219 69.364C382.776 69.364 404.304 90.8923 404.304 117.449C404.304 144.005 382.776 165.533 356.219 165.533C343.838 165.533 332.549 160.853 324.025 153.166C311.39 166.507 293.631 174.946 273.898 175.333C270.333 191.072 256.26 202.824 239.442 202.824C230.208 202.824 221.801 199.28 215.506 193.479C204.967 204.479 190.131 211.328 173.694 211.328C152.214 211.328 133.467 199.632 123.473 182.26C117.017 189.272 107.76 193.665 97.4779 193.665C77.9671 193.665 62.1504 177.848 62.1504 158.337C62.1504 157.981 62.1557 157.627 62.1661 157.273Z"/>
</mask>
<path fill-rule="evenodd" clip-rule="evenodd" d="M62.1661 157.273C58.7808 157.971 55.2747 158.337 51.6829 158.337C23.1392 158.337 0 135.198 0 106.654C0 78.1105 23.1392 54.9713 51.6829 54.9713C64.124 54.9713 75.5384 59.3672 84.4576 66.6905C86.0286 29.9642 116.3 0.67157 153.413 0.67157C186.674 0.67157 214.44 24.1989 220.976 55.5192C233.911 41.8848 252.203 33.3823 272.48 33.3823C300.659 33.3823 325.003 49.8023 336.465 73.5962C342.492 70.8772 349.179 69.364 356.219 69.364C382.776 69.364 404.304 90.8923 404.304 117.449C404.304 144.005 382.776 165.533 356.219 165.533C343.838 165.533 332.549 160.853 324.025 153.166C311.39 166.507 293.631 174.946 273.898 175.333C270.333 191.072 256.26 202.824 239.442 202.824C230.208 202.824 221.801 199.28 215.506 193.479C204.967 204.479 190.131 211.328 173.694 211.328C152.214 211.328 133.467 199.632 123.473 182.26C117.017 189.272 107.76 193.665 97.4779 193.665C77.9671 193.665 62.1504 177.848 62.1504 158.337C62.1504 157.981 62.1557 157.627 62.1661 157.273Z" fill="white"/>
<path d="M62.1661 157.273L66.1644 157.392L66.3139 152.335L61.359 153.356L62.1661 157.273ZM84.4576 66.6905L81.9193 69.782L88.1115 74.8662L88.454 66.8615L84.4576 66.6905ZM220.976 55.5192L217.061 56.3364L218.621 63.8135L223.878 58.2722L220.976 55.5192ZM336.465 73.5962L332.862 75.3322L334.555 78.8465L338.11 77.2422L336.465 73.5962ZM324.025 153.166L326.704 150.196L323.806 147.581L321.121 150.415L324.025 153.166ZM273.898 175.333L273.819 171.334L270.688 171.395L269.996 174.449L273.898 175.333ZM215.506 193.479L218.217 190.538L215.332 187.879L212.618 190.712L215.506 193.479ZM123.473 182.26L126.94 180.266L124.222 175.541L120.53 179.551L123.473 182.26ZM61.359 153.356C58.2377 153.999 55.002 154.337 51.6829 154.337V162.337C55.5474 162.337 59.3239 161.943 62.9733 161.191L61.359 153.356ZM51.6829 154.337C25.3484 154.337 4 132.989 4 106.654H-4C-4 137.407 20.9301 162.337 51.6829 162.337V154.337ZM4 106.654C4 80.3197 25.3484 58.9713 51.6829 58.9713V50.9713C20.9301 50.9713 -4 75.9014 -4 106.654H4ZM51.6829 58.9713C63.1648 58.9713 73.6893 63.0245 81.9193 69.782L86.9959 63.5991C77.3876 55.71 65.0833 50.9713 51.6829 50.9713V58.9713ZM88.454 66.8615C89.9338 32.2666 118.452 4.67157 153.413 4.67157V-3.32843C114.148 -3.32843 82.1234 27.6617 80.4613 66.5196L88.454 66.8615ZM153.413 4.67157C184.742 4.67157 210.903 26.8326 217.061 56.3364L224.892 54.702C217.976 21.5651 188.606 -3.32843 153.413 -3.32843V4.67157ZM223.878 58.2722C236.089 45.4008 253.345 37.3823 272.48 37.3823V29.3823C251.06 29.3823 231.733 38.3688 218.074 52.7662L223.878 58.2722ZM272.48 37.3823C299.065 37.3823 322.04 52.8697 332.862 75.3322L340.069 71.8601C327.965 46.7348 302.253 29.3823 272.48 29.3823V37.3823ZM338.11 77.2422C343.63 74.752 349.757 73.364 356.219 73.364V65.364C348.6 65.364 341.353 67.0025 334.82 69.9501L338.11 77.2422ZM356.219 73.364C380.567 73.364 400.304 93.1014 400.304 117.449H408.304C408.304 88.6832 384.985 65.364 356.219 65.364V73.364ZM400.304 117.449C400.304 141.796 380.567 161.533 356.219 161.533V169.533C384.985 169.533 408.304 146.214 408.304 117.449H400.304ZM356.219 161.533C344.865 161.533 334.522 157.246 326.704 150.196L321.346 156.136C330.576 164.461 342.81 169.533 356.219 169.533V161.533ZM321.121 150.415C309.192 163.01 292.438 170.969 273.819 171.334L273.976 179.332C294.823 178.924 313.587 170.004 326.93 155.916L321.121 150.415ZM269.996 174.449C266.835 188.406 254.351 198.824 239.442 198.824V206.824C258.169 206.824 273.83 193.739 277.799 176.216L269.996 174.449ZM239.442 198.824C231.251 198.824 223.802 195.685 218.217 190.538L212.795 196.42C219.799 202.876 229.164 206.824 239.442 206.824V198.824ZM212.618 190.712C202.802 200.957 188.995 207.328 173.694 207.328V215.328C191.266 215.328 207.133 208.001 218.395 196.246L212.618 190.712ZM173.694 207.328C153.703 207.328 136.249 196.447 126.94 180.266L120.006 184.255C130.684 202.816 150.725 215.328 173.694 215.328V207.328ZM120.53 179.551C114.8 185.774 106.596 189.665 97.4779 189.665V197.665C108.925 197.665 119.234 192.769 126.415 184.97L120.53 179.551ZM97.4779 189.665C80.1762 189.665 66.1504 175.639 66.1504 158.337H58.1504C58.1504 180.057 75.7579 197.665 97.4779 197.665V189.665ZM66.1504 158.337C66.1504 158.021 66.1551 157.706 66.1644 157.392L58.1679 157.155C58.1562 157.548 58.1504 157.942 58.1504 158.337H66.1504Z" fill="black" mask="url(#path-1-inside-1_17_70)"/>
</svg>
