<svg width="3957" height="185" viewBox="0 0 3957 185" fill="none" xmlns="http://www.w3.org/2000/svg">
<path d="M1319 125.5C1332 129.5 1353.95 135.926 1379.63 133.751C1412.64 130.953 1445.73 118.514 1479.9 108.225C1646.54 58.0603 1646.34 140.465 1733.72 158.087C1831.64 177.833 1935.93 88.8543 2058.64 98.7209C2129.63 104.428 2194.71 142.709 2275.33 134.425C2384.94 123.163 2427.07 39.594 2541.82 10.6385C2610.34 -6.65469 2691.83 -0.294544 2759 20.2235L2759 184.632L1319 184.632L1319 125.5Z" fill="#0E685B"/>
<path d="M3957 121.514C3941.01 128.863 3922.05 136.294 3896.37 134.119C3863.36 131.32 3830.27 118.882 3796.1 108.593C3629.46 58.4282 3629.66 140.833 3542.28 158.455C3444.36 178.2 3340.07 89.2222 3217.36 99.0888C3146.37 104.796 3081.29 143.077 3000.67 134.793C2891.06 123.531 2848.93 39.9619 2734.18 11.0064C2665.66 -6.28677 2584.17 0.0733756 2517 20.5914L2517 185L3957 185L3957 121.509L3957 121.514Z" fill="#0E685B"/>
<path d="M1440 121.509C1423.5 126.5 1401.13 131.886 1376 135C1342.5 135 1313.27 118.882 1279.1 108.593C1112.46 58.4281 1112.66 140.833 1025.28 158.454C927.358 178.2 823.069 89.2222 700.357 99.0887C629.374 104.796 564.287 143.077 483.665 134.793C374.056 123.531 331.927 39.9619 217.185 11.0064C148.662 -6.28679 67.1702 0.07337 0 20.5914L0 185L1440 185V121.509Z" fill="#0E685B"/>
</svg>
