<svg width="168" height="46" viewBox="0 0 168 46" fill="none" xmlns="http://www.w3.org/2000/svg">
<g id="jupiter 1" clip-path="url(#clip0_114_38)">
<g id="Mask group">
<mask id="mask0_114_38" style="mask-type:luminance" maskUnits="userSpaceOnUse" x="0" y="0" width="47" height="46">
<g id="Group">
<path id="Vector" d="M46.4943 0.915527H0.5V45.9155H46.4943V0.915527Z" fill="white"/>
</g>
</mask>
<g mask="url(#mask0_114_38)">
<g id="Group_2">
<g id="Group_3" filter="url(#filter0_d_114_38)">
<path id="Vector_2" d="M4.90308 36.306C6.82908 38.9505 9.2996 41.1631 12.1526 42.799C15.0057 44.4347 18.1768 45.4568 21.4581 45.7981C19.7699 43.2905 17.316 40.9835 14.2526 39.2271C11.1891 37.4707 7.94491 36.5112 4.90308 36.306Z" fill="#1C3C27"/>
<path id="Vector_3" d="M18.369 32.2334C12.467 28.8487 6.07891 27.9861 1.50806 29.5099C1.94932 30.9495 2.53127 32.3434 3.2457 33.6718C7.21699 33.581 11.5529 34.6457 15.5875 36.9588C19.6222 39.272 22.7081 42.4644 24.5964 45.9155C26.1202 45.8694 27.636 45.6777 29.1225 45.3434C28.1983 40.6699 24.2696 35.6188 18.369 32.2334Z" fill="#1C3C27"/>
<path id="Vector_4" d="M46.4943 18.4949C45.7439 15.482 44.3861 12.6493 42.5021 10.1659C40.618 7.68248 38.2463 5.59928 35.5285 4.04071C32.8108 2.48213 29.8027 1.48014 26.684 1.09456C23.5652 0.70897 20.3997 0.947702 17.3765 1.79649C22.4271 2.40662 28.0333 4.27818 33.5312 7.43102C39.0293 10.5838 43.4571 14.4635 46.4943 18.4949Z" fill="#1C3C27"/>
<path id="Vector_5" d="M39.1458 29.5445C36.5606 25.3064 32.132 21.2483 26.6764 18.1199C21.2209 14.9915 15.4572 13.2045 10.4514 13.0863C6.04742 12.9834 2.74213 14.2471 1.3854 16.5527C1.37767 16.5663 1.36686 16.5793 1.35836 16.593C1.23628 17.0255 1.13121 17.4586 1.0354 17.8934C2.92988 17.1551 5.1249 16.7441 7.56563 16.6982C12.9933 16.5977 19.0676 18.3113 24.6731 21.5259C30.2784 24.7406 34.799 29.1022 37.3981 33.8047C38.5633 35.9234 39.2903 38.0092 39.5785 40.002C39.9138 39.7062 40.2429 39.4003 40.5621 39.0824C40.5706 39.0679 40.576 39.0525 40.5844 39.0373C41.9412 36.7296 41.4165 33.27 39.1458 29.5445Z" fill="#1C3C27"/>
<path id="Vector_6" d="M22.526 25.1712C14.1716 20.3803 4.9395 19.6297 0.5 22.9732C0.50872 24.0198 0.589775 25.0645 0.742602 26.1002C2.04855 25.7094 3.39451 25.4633 4.75561 25.3665C9.71664 24.9981 15.186 26.3626 20.1494 29.2102C25.1127 32.058 29.0253 36.0743 31.1592 40.5075C31.7491 41.7221 32.199 42.9981 32.5005 44.3117C33.4879 43.9296 34.4479 43.4818 35.374 42.9717C36.1172 37.508 30.8827 29.963 22.526 25.1712Z" fill="#1C3C27"/>
<path id="Vector_7" d="M43.4429 22.4511C40.8285 18.2175 36.3611 14.148 30.8669 10.999C25.3728 7.84991 19.5866 6.03477 14.5646 5.8891C10.7363 5.78005 7.77093 6.69599 6.2334 8.42647C12.6176 7.35875 21.0384 9.15329 29.2004 13.8338C37.3625 18.5143 43.1154 24.8473 45.336 30.8502C46.097 28.6758 45.4348 25.6794 43.4429 22.4511Z" fill="#1C3C27"/>
</g>
</g>
</g>
</g>
<path id="Vector_8" d="M63.7401 35.14C61.9303 35.14 60.4362 34.676 59.2577 33.7482C58.0897 32.8203 57.2585 31.5656 56.7639 29.984L60.9938 28.9718C61.0885 29.5517 61.3937 30.0578 61.9093 30.4901C62.4249 30.9119 62.972 31.1227 63.5507 31.1227C63.9506 31.1227 64.3767 31.012 64.8292 30.7906C65.2922 30.5692 65.6236 30.216 65.8235 29.731C65.9498 29.4252 66.0235 29.0509 66.0445 28.608C66.0655 28.1652 66.0761 27.6538 66.0761 27.0739V11.8907H70.4323V27.0739C70.4323 27.8014 70.427 28.4341 70.4165 28.9718C70.4165 29.5095 70.3639 30.0156 70.2586 30.4901C70.1639 30.954 69.9693 31.4391 69.6747 31.9452C69.0328 33.0628 68.1963 33.8747 67.1651 34.3808C66.1339 34.8869 64.9923 35.14 63.7401 35.14Z" fill="#1C3C27"/>
<path id="Vector_9" d="M81.5025 35.1717C80.1662 35.1717 79.0772 34.945 78.2354 34.4916C77.3936 34.0382 76.736 33.4636 76.2625 32.7677C75.7995 32.0718 75.468 31.3495 75.2681 30.6009C75.0682 29.8418 74.9472 29.1511 74.9051 28.5291C74.863 27.907 74.842 27.4536 74.842 27.1689V17.5845H79.1982V25.6506C79.1982 26.0407 79.2192 26.5415 79.2613 27.1531C79.3034 27.7541 79.4349 28.3603 79.6559 28.9719C79.8768 29.5834 80.2346 30.0948 80.7291 30.506C81.2342 30.9172 81.9445 31.1228 82.8599 31.1228C83.2282 31.1228 83.6227 31.0649 84.0436 30.9489C84.4645 30.8329 84.8591 30.6115 85.2274 30.2846C85.5957 29.9472 85.8955 29.4569 86.127 28.8137C86.369 28.16 86.49 27.306 86.49 26.2516L88.9522 27.4219C88.9522 28.7716 88.6787 30.0368 88.1315 31.2177C87.5844 32.3986 86.7584 33.3529 85.6535 34.0804C84.5592 34.8079 83.1756 35.1717 81.5025 35.1717ZM87.0267 34.6656V29.0035H86.49V17.5845H90.8147V34.6656H87.0267Z" fill="#1C3C27"/>
<path id="Vector_10" d="M103.591 35.1401C101.897 35.1401 100.482 34.7447 99.3453 33.9539C98.2089 33.1631 97.3513 32.0876 96.7726 30.7274C96.2044 29.3673 95.9203 27.8332 95.9203 26.125C95.9203 24.4169 96.2044 22.8828 96.7726 21.5227C97.3408 20.1625 98.1773 19.087 99.2822 18.2962C100.387 17.5054 101.75 17.11 103.37 17.11C105.001 17.11 106.421 17.5002 107.632 18.2804C108.842 19.0607 109.778 20.1309 110.441 21.491C111.114 22.8406 111.451 24.3853 111.451 26.125C111.451 27.8332 111.12 29.3673 110.457 30.7274C109.804 32.0876 108.889 33.1631 107.71 33.9539C106.532 34.7447 105.159 35.1401 103.591 35.1401ZM95.1943 42.2572V17.5845H98.9823V29.2882H99.5189V42.2572H95.1943ZM102.897 31.3126C103.823 31.3126 104.58 31.0807 105.169 30.6167C105.759 30.1528 106.195 29.5307 106.479 28.7505C106.763 27.9597 106.906 27.0845 106.906 26.125C106.906 25.1761 106.758 24.3115 106.464 23.5313C106.169 22.7405 105.711 22.1131 105.09 21.6492C104.48 21.1747 103.696 20.9375 102.739 20.9375C101.844 20.9375 101.118 21.1536 100.561 21.5859C100.014 22.0182 99.6136 22.6245 99.3611 23.4047C99.1086 24.185 98.9823 25.0918 98.9823 26.125C98.9823 27.1583 99.1086 28.0651 99.3611 28.8454C99.6136 29.6256 100.024 30.2319 100.592 30.6642C101.171 31.0965 101.939 31.3126 102.897 31.3126Z" fill="#1C3C27"/>
<path id="Vector_11" d="M115.24 15.2122V11.4164H119.533V15.2122H115.24ZM115.24 34.6656V17.5845H119.533V34.6656H115.24Z" fill="#1C3C27"/>
<path id="Vector_12" d="M134.492 34.6655C133.314 34.8869 132.156 34.9818 131.02 34.9502C129.894 34.9291 128.884 34.734 127.99 34.365C127.106 33.9854 126.432 33.3791 125.969 32.5462C125.548 31.7659 125.327 30.9751 125.306 30.1738C125.285 29.3619 125.275 28.4446 125.275 27.4218V12.8397H129.568V27.1688C129.568 27.8331 129.573 28.4341 129.584 28.9718C129.605 29.499 129.715 29.9207 129.915 30.2371C130.294 30.8381 130.899 31.1649 131.73 31.2176C132.561 31.2704 133.482 31.2282 134.492 31.0911V34.6655ZM122.371 20.9057V17.5844H134.492V20.9057H122.371Z" fill="#1C3C27"/>
<path id="Vector_13" d="M145.289 35.1401C143.543 35.1401 142.001 34.7657 140.665 34.0171C139.339 33.258 138.297 32.2194 137.54 30.9014C136.793 29.5729 136.419 28.0546 136.419 26.3465C136.419 24.4802 136.787 22.8565 137.524 21.4752C138.26 20.094 139.276 19.0238 140.57 18.2646C141.864 17.4949 143.353 17.11 145.037 17.11C146.826 17.11 148.346 17.5318 149.598 18.3753C150.85 19.2188 151.776 20.405 152.376 21.9339C152.976 23.4627 153.186 25.2605 153.007 27.3271H148.762V25.7455C148.762 24.0057 148.483 22.7563 147.925 21.9971C147.378 21.2274 146.478 20.8426 145.226 20.8426C143.764 20.8426 142.685 21.2907 141.991 22.1869C141.307 23.0726 140.965 24.3853 140.965 26.125C140.965 27.7172 141.307 28.9508 141.991 29.8259C142.685 30.6905 143.7 31.1228 145.037 31.1228C145.879 31.1228 146.599 30.9383 147.199 30.5693C147.799 30.2003 148.257 29.6678 148.572 28.9719L152.865 30.2055C152.223 31.766 151.208 32.9786 149.819 33.8432C148.441 34.7078 146.931 35.1401 145.289 35.1401ZM139.639 27.3271V24.1323H150.94V27.3271H139.639Z" fill="#1C3C27"/>
<path id="Vector_14" d="M156.571 34.6655V17.5844H160.359V21.7598L159.949 21.2221C160.17 20.6316 160.464 20.0939 160.833 19.6088C161.201 19.1238 161.653 18.7232 162.19 18.4068C162.6 18.1538 163.048 17.9587 163.532 17.8217C164.016 17.674 164.515 17.5844 165.031 17.5528C165.547 17.5106 166.062 17.5212 166.578 17.5844V21.6016C166.104 21.454 165.552 21.4066 164.921 21.4593C164.3 21.5015 163.737 21.6438 163.232 21.8863C162.727 22.1183 162.3 22.4293 161.953 22.8194C161.606 23.199 161.343 23.6524 161.164 24.1796C160.985 24.6963 160.896 25.2814 160.896 25.9352V34.6655H156.571Z" fill="#1C3C27"/>
</g>
<defs>
<filter id="filter0_d_114_38" x="-16.5222" y="-14.4044" width="80.0388" height="79.0444" filterUnits="userSpaceOnUse" color-interpolation-filters="sRGB">
<feFlood flood-opacity="0" result="BackgroundImageFix"/>
<feColorMatrix in="SourceAlpha" type="matrix" values="0 0 0 0 0 0 0 0 0 0 0 0 0 0 0 0 0 0 127 0" result="hardAlpha"/>
<feOffset dy="1.70223"/>
<feGaussianBlur stdDeviation="8.5111"/>
<feComposite in2="hardAlpha" operator="out"/>
<feColorMatrix type="matrix" values="0 0 0 0 0 0 0 0 0 0 0 0 0 0 0 0 0 0 0.1 0"/>
<feBlend mode="normal" in2="BackgroundImageFix" result="effect1_dropShadow_114_38"/>
<feBlend mode="normal" in="SourceGraphic" in2="effect1_dropShadow_114_38" result="shape"/>
</filter>
<clipPath id="clip0_114_38">
<rect width="167" height="45" fill="white" transform="translate(0.5 0.915527)"/>
</clipPath>
</defs>
</svg>
