<svg width="437" height="437" viewBox="0 0 437 437" fill="none" xmlns="http://www.w3.org/2000/svg">
<g clip-path="url(#clip0_18_391)">
<rect width="437" height="437" fill="white"/>
<path d="M342.935 547.368C336.722 523.777 330.445 500.211 324.32 476.595C319.238 457.012 314.447 437.365 309.339 417.783C305.705 403.837 300.699 390.374 294.46 377.344C288.679 365.269 280.038 356.056 268.348 349.656C267.866 349.389 267.408 349.096 266.862 348.778C268.132 347.213 269.327 345.724 270.547 344.261C270.686 344.095 270.991 344.032 271.233 343.968C278.996 342.238 286.049 338.802 292.999 335.074C300.178 331.244 307.167 327.147 313.126 321.535C314.663 320.085 316.226 318.57 317.344 316.814C318.653 314.778 320.457 313.99 322.643 313.531C326.264 312.755 329.072 310.681 331.245 307.742C332.91 305.477 333.634 302.907 332.973 300.107C332.694 298.924 333.024 298.504 334.168 298.224C338.348 297.155 342.567 296.175 346.633 294.776C349.085 293.936 351.537 292.702 353.558 291.086C358.068 287.472 358.246 281.809 354.129 277.75C352.63 276.274 350.813 275.053 348.971 274.035C346.264 272.546 343.443 271.223 340.584 270.065C339.301 269.543 338.92 268.742 338.628 267.571C337.878 264.67 337.077 261.794 336.201 258.931C334.714 254.083 331.855 250.138 328.081 246.805C326.493 245.392 324.943 243.903 323.558 242.3C321.97 240.481 321.347 238.674 321.029 236.065C322.783 235.531 324.562 234.996 326.341 234.462C330.152 233.317 333.799 231.79 337.077 229.487C339.835 227.553 341.982 225.097 343.494 222.068C343.723 221.61 344.409 221.152 344.917 221.127C349.86 220.821 354.523 216.788 354.269 209.509C354.256 209.115 354.384 208.606 354.638 208.339C358.627 204.191 358.755 202.269 355.197 197.612C357.204 196.009 358.856 194.126 358.983 191.364C359.11 188.578 357.408 186.669 355.375 184.519C356.315 184.519 356.899 184.519 357.471 184.519C366.277 184.557 375.044 184.086 383.71 182.47C386.289 181.986 388.767 180.981 391.258 180.141C393.913 179.251 395.692 177.113 397.547 175.204C399.11 173.614 398.703 171.145 396.67 169.987C394.79 168.918 392.731 168.104 390.673 167.404C380.228 163.88 369.707 160.609 359.326 156.919C346.696 152.44 334.168 147.643 321.614 142.935C321.169 142.77 320.648 142.172 320.597 141.714C319.454 133.303 318.628 124.841 317.217 116.481C313.482 94.2389 306.595 72.9383 297.256 52.4392C295.159 47.833 292.389 43.5321 289.873 39.1295C289.378 38.2515 288.653 37.5008 287.993 36.7373C284.498 32.7037 280.178 31.4567 275.083 33.0218C267.027 35.4903 259.467 39.1168 252.148 43.214C239.06 50.5433 226.684 59.005 214.334 67.4922C211.78 69.2482 209.289 71.0932 206.722 72.8237C206.303 73.1037 205.579 73.2182 205.096 73.0528C201.106 71.7167 197.116 70.3298 193.152 68.8919C181.043 64.5274 168.616 61.27 156.113 58.2925C155.871 58.2288 155.617 58.1779 155.363 58.127C148.794 56.9182 145.427 58.6106 143.508 65.0237C140.929 73.6381 138.426 82.3161 136.647 91.1087C134.347 102.51 132.72 114.051 130.992 125.566C130.56 128.404 130.865 131.356 130.827 134.244C130.827 134.792 130.827 135.339 130.827 135.95C130.128 135.95 129.595 135.975 129.048 135.95C112.174 135.097 95.427 135.873 78.985 140.123C73.0511 141.663 67.3586 143.839 62.3777 147.516C60.7259 148.738 59.1503 150.188 57.8796 151.804C54.4362 156.22 54.3345 161.653 57.8415 166.03C59.8237 168.499 62.1998 170.738 64.7157 172.672C71.2341 177.686 78.5784 181.325 86.0624 184.646C89.4932 186.173 92.9493 187.623 96.5071 189.163C96.2784 189.494 96.164 189.761 95.9607 189.965C90.6748 195.449 87.2441 202.015 84.6647 209.115C81.6533 217.411 78.7181 225.746 74.2836 233.431C71.1705 238.826 67.8669 244.12 64.8046 249.553C61.933 254.643 60.764 260.191 60.5734 266.057C60.0143 283.311 65.5543 298.644 74.9825 312.743C76.5326 315.071 78.8071 316.916 80.8401 318.901C82.3268 320.352 82.5936 323.075 81.1832 324.653C80.6495 325.251 80.0015 325.772 79.3535 326.243C76.8757 328.025 74.4488 329.882 71.8821 331.511C62.8733 337.212 56.3549 345.113 51.3231 354.389C45.529 365.078 41.5011 376.479 37.7654 387.995C32.0221 405.682 28.0704 423.801 24.6524 442.048C19.6461 468.782 14.7414 495.529 9.69696 522.25C8.2103 530.088 6.38058 537.863 4.72876 545.676C4.61438 546.21 4.57623 546.77 4.5 547.317H342.935V547.368Z" fill="#0E685B" fill-opacity="0.2"/>
</g>
<defs>
<clipPath id="clip0_18_391">
<rect width="437" height="437" fill="white"/>
</clipPath>
</defs>
</svg>
