<svg width="196" height="53" viewBox="0 0 196 53" fill="none" xmlns="http://www.w3.org/2000/svg">
  <g id="&#60;radium&#62;" clip-path="url(#clip0_0_1)">
    <g id="Clip path group">
      <mask id="mask0_0_1" style="mask-type:luminance" maskUnits="userSpaceOnUse" x="0" y="0" width="196" height="53">
        <g id="clip0_40_1760">
          <path id="Vector" d="M195.5 0.415527H0.5V52.4155H195.5V0.415527Z" fill="white" />
        </g>
      </mask>
      <g mask="url(#mask0_0_1)">
        <g id="Group">
          <path id="Vector_2" fill-rule="evenodd" clip-rule="evenodd"
            d="M63.2504 32.8311L60.766 28.335H57.1343V32.8311H54.995V19.3248H61.4389C62.2238 19.3158 63.0002 19.5406 63.6731 19.9633C64.3459 20.3859 64.898 20.9884 65.2689 21.7167C65.6399 22.4451 65.8038 23.2634 65.7606 24.0817C65.7175 24.9 65.4587 25.7003 65.0101 26.3747C64.5443 27.0941 63.8887 27.6516 63.121 27.9843L65.7606 32.8311H63.2504ZM61.4302 21.6178H57.1343V26.1049H61.4389C61.7235 26.1049 61.9996 26.042 62.2583 25.9251C62.5171 25.8082 62.75 25.6373 62.9398 25.4215C63.2331 25.1068 63.4401 24.7111 63.5178 24.2705C63.5954 23.8389 63.5523 23.3893 63.397 22.9756C63.2331 22.571 62.9657 22.2203 62.612 21.9685C62.2583 21.7167 61.8529 21.5819 61.4302 21.5819V21.6178ZM84.3417 19.3248L77.8806 32.8311H80.2787L84.333 24.3694L88.3788 32.8311H90.7769L84.3417 19.3248ZM111.532 19.3248H108.797L105.122 24.3065L101.465 19.3248H98.7217L104.104 26.5275V32.8311H106.244V26.4196L111.532 19.3248ZM122.496 19.3248H126.783C128.491 19.3338 130.121 20.0532 131.32 21.3211C132.528 22.58 133.21 24.2975 133.218 26.0779C133.21 27.8674 132.528 29.5759 131.32 30.8438C130.113 32.1117 128.482 32.8221 126.774 32.8311H122.487V19.3248H122.496ZM126.783 30.5381C127.922 30.5381 129.009 30.0615 129.811 29.2162C130.613 28.3709 131.07 27.2289 131.07 26.042C131.053 24.855 130.604 23.713 129.802 22.8767C129 22.0405 127.913 21.5549 126.783 21.5459H124.618V30.5381H126.783ZM147.529 19.3248H145.39V32.8311H147.529V19.3248ZM170.423 27.193C170.432 27.9393 170.303 28.6767 170.027 29.3601C169.759 30.0435 169.354 30.6639 168.836 31.1765C168.086 31.9678 167.128 32.4983 166.084 32.7142C165.041 32.93 163.962 32.8221 162.979 32.3904C161.996 31.9678 161.159 31.2394 160.572 30.3132C159.986 29.3871 159.675 28.299 159.675 27.184V19.3248H161.814V27.184C161.814 28.0832 162.151 28.9374 162.763 29.5669C163.367 30.1963 164.187 30.556 165.041 30.556C165.895 30.556 166.714 30.1963 167.318 29.5669C167.922 28.9374 168.258 28.0742 168.258 27.184V19.3248H170.415V27.193H170.423ZM184.717 32.8311V24.7561L189.03 29.2612L193.326 24.7561V32.8311H195.5V19.3248L189.03 26.0779L182.587 19.3248V32.8311H184.717Z"
            fill="white" />
          <path id="Vector_3"
            d="M40.9068 19.5936V37.4302L21.8123 48.8846L2.71005 37.4302V14.5214L21.82 3.05109L36.4944 11.8615L38.7122 10.5356L21.82 0.39917L0.5 13.1875V38.7561L21.82 51.5445L43.14 38.7561V18.2677L40.9068 19.5936Z"
            fill="white" />
          <path id="Vector_4"
            d="M16.4726 37.4461H13.2812V26.3113H23.9296C24.9342 26.3033 25.9001 25.8799 26.611 25.1291C27.3219 24.3862 27.716 23.3798 27.7238 22.3334C27.7315 21.8142 27.631 21.303 27.4378 20.8237C27.2447 20.3445 26.9587 19.9131 26.6033 19.5537C26.2555 19.1862 25.8383 18.8907 25.3823 18.691C24.9264 18.4913 24.4319 18.3875 23.9296 18.3954H13.2812V15.0087H23.9373C25.7996 15.0166 27.5924 15.7994 28.9061 17.1653C30.2274 18.5392 30.9693 20.3924 30.9847 22.3334C30.9925 23.8191 30.5597 25.2649 29.7406 26.479C28.9833 27.6372 27.9169 28.5478 26.6728 29.091C25.4364 29.4984 24.1537 29.6981 22.8632 29.6901H16.4726V37.4461Z"
            fill="white" />
          <path id="Vector_5"
            d="M30.9075 37.1666H27.1828L24.3082 31.9586C25.4442 31.8867 26.5646 31.6471 27.6388 31.2477L30.9075 37.1666Z"
            fill="white" />
          <path id="Vector_6"
            d="M38.6813 15.8873L40.8836 17.1573L43.0859 15.8873V13.1954L40.8836 11.8695L38.6813 13.1954V15.8873Z"
            fill="white" />
        </g>
      </g>
    </g>
  </g>
  <defs>
    <clipPath id="clip0_0_1">
      <rect width="195" height="52" fill="white" transform="translate(0.5 0.415527)" />
    </clipPath>
  </defs>
</svg>
