<svg width="4306" height="216" viewBox="0 0 4306 216" fill="none" xmlns="http://www.w3.org/2000/svg">
<path d="M2800.24 188.563C2743.72 166.726 2708.03 128.234 2642.06 108.558C2552.57 81.8659 2467.16 165.127 2360.49 145.729C2309.97 136.541 2272.04 105.921 2215.74 101.154C2103.46 91.6409 2052.4 185.175 1925.05 190.812C1839.11 194.62 1764.81 157.266 1715.19 119.728C1663.88 80.9115 1614.08 35.0411 1515.12 12.2345C1489 5 1460.5 1.49992 1432 1.99995V216H2872V197.5C2852 197 2829.27 199.775 2800.24 188.563Z" fill="#65E8D6"/>
<path d="M71.7594 188.563C128.282 166.726 163.971 128.235 229.938 108.559C319.429 81.866 404.839 165.127 511.506 145.729C562.032 136.541 599.965 105.921 656.255 101.154C768.542 91.6411 819.6 185.175 946.945 190.813C1032.89 194.62 1107.19 157.266 1156.81 119.729C1208.12 80.9116 1257.92 35.0413 1356.88 12.2346C1383.7 6.05705 1411 0.999954 1440 2V216H0V192.963C19.737 199.224 42.7275 199.775 71.7594 188.563Z" fill="#65E8D6"/>
<path d="M2937.76 188.563C2994.28 166.726 3029.97 128.234 3095.94 108.558C3185.43 81.8659 3270.84 165.127 3377.51 145.729C3428.03 136.541 3465.96 105.921 3522.26 101.154C3634.54 91.641 3685.6 185.175 3812.95 190.812C3898.89 194.62 3973.19 157.266 4022.81 119.728C4074.12 80.9115 4123.92 35.0412 4222.88 12.2345C4249.7 6.05696 4277.53 2.10814 4306 0V216H2866V197.5C2885.5 197.5 2908.73 199.775 2937.76 188.563Z" fill="#65E8D6"/>
</svg>
