<svg width="3953" height="184" viewBox="0 0 3953 184" fill="none" xmlns="http://www.w3.org/2000/svg">
<path d="M1318 62C1333.99 54.6502 1350.87 53.6188 1383.5 52C1420.87 52 1445.73 66.1183 1479.9 76.4072C1646.54 126.572 1646.34 44.1671 1733.72 26.5455C1831.64 6.79957 1935.93 95.7778 2058.64 85.9112C2129.63 80.2037 2194.71 41.9233 2275.33 50.2073C2384.94 61.4688 2427.07 145.038 2541.82 173.994C2610.34 191.287 2691.83 184.927 2759 164.409L2759 0.00012207L1319 -3.81849e-06L1319 63.4906L1318 62Z" fill="#65E8D6"/>
<path d="M3953 63.4864C3937.01 56.1366 3918.05 48.7057 3892.37 50.8812C3859.36 53.6795 3826.27 66.1183 3792.1 76.4072C3625.46 126.572 3625.66 44.1671 3538.28 26.5455C3440.36 6.79957 3336.07 95.7778 3213.36 85.9112C3142.37 80.2037 3077.29 41.9233 2996.67 50.2073C2887.06 61.4688 2844.93 145.038 2730.18 173.994C2661.66 191.287 2580.17 184.927 2513 164.409L2513 0.000120683L3953 -5.20597e-06L3953 63.4906L3953 63.4864Z" fill="#65E8D6"/>
<path d="M1441 62.5C1424.5 56 1390.18 50.8245 1364.5 53C1331.49 55.7983 1313.27 66.1183 1279.1 76.4072C1112.46 126.572 1112.66 44.1671 1025.28 26.5455C927.358 6.79957 823.069 95.7778 700.357 85.9112C629.374 80.2037 564.287 41.9233 483.665 50.2073C374.056 61.4688 331.927 145.038 217.185 173.994C148.662 191.287 67.1702 184.927 -1.71273e-06 164.409L-1.60858e-05 0.00012207L1440 -3.81849e-06L1441 62.5Z" fill="#65E8D6"/>
</svg>
